<svg xmlns="http://www.w3.org/2000/svg" height="80px" width="85px" viewBox="0 0 125 100"><g xmlns="http://www.w3.org/2000/svg" transform="matrix(0 1 -1 0 125 -0)"><path d="M67.88,10.44H32.13a1,1,0,0,0-1,1v28a1,1,0,0,0,1,1h8.63a1,1,0,0,0,1-1v-5.5H45L43,65.52a4.41,4.41,0,0,1-4.41,4,3.25,3.25,0,0,0-3.25,3.25V84a1,1,0,0,0,1.1,1A3.6,3.6,0,0,1,40,88.56a1,1,0,0,0,1,1H59a1,1,0,0,0,1-1A3.6,3.6,0,0,1,63.64,85h0a1.08,1.08,0,0,0,.72-.29,1,1,0,0,0,.3-.71V72.78a3.25,3.25,0,0,0-3.25-3.25,4.4,4.4,0,0,1-4.41-4l-2-31.6h3.27v5.5a1,1,0,0,0,1,1h8.63a1,1,0,0,0,1-1v-28A1,1,0,0,0,67.88,10.44ZM61.42,71.53a1.25,1.25,0,0,1,1.25,1.25v10.3a5.61,5.61,0,0,0-4.57,4.48H41.9a5.61,5.61,0,0,0-4.57-4.48V72.78a1.25,1.25,0,0,1,1.25-1.25A6.41,6.41,0,0,0,45,65.67l2-31.56h6L55,65.7A6.4,6.4,0,0,0,61.42,71.53Zm5.46-59.09v3.33H33.13V12.44Zm0,7.17H33.13V17.77H66.88ZM60.25,38.44v-5.5a1,1,0,0,0-1-1H40.75a1,1,0,0,0-1,1v5.5H33.13V21.61H66.88V38.44Z" fill="#003383" /><path d="M42.46,77.94A7.54,7.54,0,1,0,50,70.39,7.55,7.55,0,0,0,42.46,77.94Zm13.09,0A5.54,5.54,0,1,1,50,72.39,5.55,5.55,0,0,1,55.54,77.94Z" fill="#003383" /><path d="M50,22.94a3.83,3.83,0,1,0,3.83,3.83A3.84,3.84,0,0,0,50,22.94Zm0,5.67a1.83,1.83,0,1,1,1.83-1.83A1.84,1.84,0,0,1,50,28.61Z" fill="#003383"/></g></svg>